<mxfile host="app.diagrams.net" modified="2023-11-03T19:04:51.605Z" agent="Mozilla/5.0 (Macintosh; Intel Mac OS X 10_15_7) AppleWebKit/537.36 (KHTML, like Gecko) Chrome/118.0.0.0 Safari/537.36" etag="rqE8oFfV3nFE1ewIycep" version="22.0.8" type="github">
  <diagram name="Seite-1" id="j2oCauuogQ8NOSz05JqT">
    <mxGraphModel dx="3434" dy="1513" grid="1" gridSize="10" guides="1" tooltips="1" connect="1" arrows="1" fold="1" page="1" pageScale="1" pageWidth="827" pageHeight="1169" math="0" shadow="0">
      <root>
        <mxCell id="0" />
        <mxCell id="1" parent="0" />
        <mxCell id="4N5WWOKBTAKUQs4fO8nh-11" value="" style="shape=note;whiteSpace=wrap;html=1;backgroundOutline=1;darkOpacity=0.05;size=73;fillColor=#e1d5e7;strokeColor=#9673a6;fontSize=18;" parent="1" vertex="1">
          <mxGeometry x="40" y="120" width="320" height="400" as="geometry" />
        </mxCell>
        <mxCell id="4N5WWOKBTAKUQs4fO8nh-14" value="" style="shape=note;whiteSpace=wrap;html=1;backgroundOutline=1;darkOpacity=0.05;size=73;fillColor=#ffe6cc;strokeColor=#d79b00;fontSize=18;" parent="1" vertex="1">
          <mxGeometry x="440" y="120" width="320" height="400" as="geometry" />
        </mxCell>
        <mxCell id="4N5WWOKBTAKUQs4fO8nh-15" value="" style="shape=note;whiteSpace=wrap;html=1;backgroundOutline=1;darkOpacity=0.05;size=73;fillColor=#fff2cc;strokeColor=#d6b656;fontSize=18;" parent="1" vertex="1">
          <mxGeometry x="840" y="120" width="320" height="400" as="geometry" />
        </mxCell>
        <mxCell id="4N5WWOKBTAKUQs4fO8nh-16" value="PolygonZkEVMBridge.sol" style="text;html=1;strokeColor=none;fillColor=none;align=center;verticalAlign=middle;whiteSpace=wrap;rounded=0;fontSize=22;" parent="1" vertex="1">
          <mxGeometry x="90" y="90" width="170" height="30" as="geometry" />
        </mxCell>
        <mxCell id="4N5WWOKBTAKUQs4fO8nh-17" value="PolygonZkEVM&lt;br style=&quot;font-size: 22px;&quot;&gt;GlobalExitRoot.sol" style="text;html=1;strokeColor=none;fillColor=none;align=center;verticalAlign=middle;whiteSpace=wrap;rounded=0;fontSize=22;" parent="1" vertex="1">
          <mxGeometry x="470" y="80" width="170" height="30" as="geometry" />
        </mxCell>
        <mxCell id="4N5WWOKBTAKUQs4fO8nh-18" value="PolygonZkEVM.sol" style="text;html=1;strokeColor=none;fillColor=none;align=center;verticalAlign=middle;whiteSpace=wrap;rounded=0;fontSize=22;" parent="1" vertex="1">
          <mxGeometry x="870" y="80" width="170" height="30" as="geometry" />
        </mxCell>
        <mxCell id="KUVzWsEhl4BoeXKU-PMS-2" style="edgeStyle=orthogonalEdgeStyle;rounded=0;orthogonalLoop=1;jettySize=auto;html=1;exitX=1;exitY=0.5;exitDx=0;exitDy=0;entryX=0;entryY=0.5;entryDx=0;entryDy=0;fillColor=#d5e8d4;strokeColor=#82b366;strokeWidth=5;" edge="1" parent="1" source="4N5WWOKBTAKUQs4fO8nh-19" target="4N5WWOKBTAKUQs4fO8nh-29">
          <mxGeometry relative="1" as="geometry">
            <Array as="points">
              <mxPoint x="400" y="270" />
              <mxPoint x="400" y="355" />
            </Array>
          </mxGeometry>
        </mxCell>
        <mxCell id="4N5WWOKBTAKUQs4fO8nh-19" value="&lt;font style=&quot;font-size: 18px;&quot;&gt;L1 Exit Tree Root&lt;/font&gt;" style="rounded=0;whiteSpace=wrap;html=1;fontSize=18;" parent="1" vertex="1">
          <mxGeometry x="140" y="240" width="120" height="60" as="geometry" />
        </mxCell>
        <mxCell id="4N5WWOKBTAKUQs4fO8nh-20" value="" style="triangle;whiteSpace=wrap;html=1;rotation=-90;" parent="1" vertex="1">
          <mxGeometry x="155" y="285" width="85" height="115" as="geometry" />
        </mxCell>
        <mxCell id="4N5WWOKBTAKUQs4fO8nh-22" value="" style="whiteSpace=wrap;html=1;aspect=fixed;" parent="1" vertex="1">
          <mxGeometry x="140.5" y="390" width="20" height="20" as="geometry" />
        </mxCell>
        <mxCell id="4N5WWOKBTAKUQs4fO8nh-25" value="" style="whiteSpace=wrap;html=1;aspect=fixed;" parent="1" vertex="1">
          <mxGeometry x="170.5" y="390" width="20" height="20" as="geometry" />
        </mxCell>
        <mxCell id="4N5WWOKBTAKUQs4fO8nh-26" value="" style="whiteSpace=wrap;html=1;aspect=fixed;" parent="1" vertex="1">
          <mxGeometry x="200.5" y="390" width="20" height="20" as="geometry" />
        </mxCell>
        <mxCell id="4N5WWOKBTAKUQs4fO8nh-27" value="" style="whiteSpace=wrap;html=1;aspect=fixed;" parent="1" vertex="1">
          <mxGeometry x="230.5" y="390" width="20" height="20" as="geometry" />
        </mxCell>
        <mxCell id="4N5WWOKBTAKUQs4fO8nh-32" style="rounded=0;orthogonalLoop=1;jettySize=auto;html=1;exitX=0.5;exitY=1;exitDx=0;exitDy=0;entryX=0.5;entryY=0;entryDx=0;entryDy=0;endArrow=none;endFill=0;" parent="1" source="4N5WWOKBTAKUQs4fO8nh-28" target="4N5WWOKBTAKUQs4fO8nh-29" edge="1">
          <mxGeometry relative="1" as="geometry" />
        </mxCell>
        <mxCell id="4N5WWOKBTAKUQs4fO8nh-33" style="rounded=0;orthogonalLoop=1;jettySize=auto;html=1;exitX=0.5;exitY=1;exitDx=0;exitDy=0;entryX=0.5;entryY=0;entryDx=0;entryDy=0;endArrow=none;endFill=0;" parent="1" source="4N5WWOKBTAKUQs4fO8nh-28" target="4N5WWOKBTAKUQs4fO8nh-30" edge="1">
          <mxGeometry relative="1" as="geometry" />
        </mxCell>
        <mxCell id="KUVzWsEhl4BoeXKU-PMS-3" style="edgeStyle=orthogonalEdgeStyle;rounded=0;orthogonalLoop=1;jettySize=auto;html=1;exitX=1;exitY=0.5;exitDx=0;exitDy=0;strokeWidth=5;fillColor=#d5e8d4;strokeColor=#82b366;" edge="1" parent="1" source="4N5WWOKBTAKUQs4fO8nh-28" target="4N5WWOKBTAKUQs4fO8nh-35">
          <mxGeometry relative="1" as="geometry">
            <Array as="points">
              <mxPoint x="800" y="270" />
              <mxPoint x="800" y="239" />
            </Array>
          </mxGeometry>
        </mxCell>
        <mxCell id="KUVzWsEhl4BoeXKU-PMS-5" style="rounded=0;orthogonalLoop=1;jettySize=auto;html=1;exitX=0;exitY=0.25;exitDx=0;exitDy=0;entryX=1;entryY=0.5;entryDx=0;entryDy=0;strokeWidth=5;fillColor=#f8cecc;strokeColor=#b85450;" edge="1" parent="1" source="4N5WWOKBTAKUQs4fO8nh-28" target="4N5WWOKBTAKUQs4fO8nh-43">
          <mxGeometry relative="1" as="geometry" />
        </mxCell>
        <mxCell id="4N5WWOKBTAKUQs4fO8nh-28" value="&lt;font style=&quot;font-size: 18px;&quot;&gt;Global Exit&lt;br&gt;Tree Root&lt;br&gt;&lt;/font&gt;" style="rounded=0;whiteSpace=wrap;html=1;" parent="1" vertex="1">
          <mxGeometry x="540" y="240" width="120" height="60" as="geometry" />
        </mxCell>
        <mxCell id="4N5WWOKBTAKUQs4fO8nh-29" value="&lt;font style=&quot;font-size: 18px;&quot;&gt;L1 Exit&amp;nbsp;&lt;br&gt;Tree Root&lt;br&gt;&lt;/font&gt;" style="rounded=0;whiteSpace=wrap;html=1;" parent="1" vertex="1">
          <mxGeometry x="480" y="330" width="90" height="50" as="geometry" />
        </mxCell>
        <mxCell id="4N5WWOKBTAKUQs4fO8nh-30" value="&lt;font style=&quot;font-size: 18px;&quot;&gt;zkEVM Exit&lt;br&gt;Ree Root&lt;br&gt;&lt;/font&gt;" style="rounded=0;whiteSpace=wrap;html=1;" parent="1" vertex="1">
          <mxGeometry x="630" y="330" width="110" height="50" as="geometry" />
        </mxCell>
        <mxCell id="4N5WWOKBTAKUQs4fO8nh-34" value="" style="rounded=0;whiteSpace=wrap;html=1;" parent="1" vertex="1">
          <mxGeometry x="865" y="190" width="155" height="180" as="geometry" />
        </mxCell>
        <mxCell id="4N5WWOKBTAKUQs4fO8nh-35" value="&lt;font style=&quot;font-size: 18px;&quot;&gt;Global Exit&lt;br&gt;Tree Root&lt;br&gt;&lt;/font&gt;" style="rounded=0;whiteSpace=wrap;html=1;" parent="1" vertex="1">
          <mxGeometry x="883" y="209" width="120" height="60" as="geometry" />
        </mxCell>
        <mxCell id="4N5WWOKBTAKUQs4fO8nh-36" value="&lt;font style=&quot;font-size: 18px;&quot;&gt;Transactions&lt;br&gt;&lt;/font&gt;" style="rounded=0;whiteSpace=wrap;html=1;" parent="1" vertex="1">
          <mxGeometry x="883" y="290" width="120" height="60" as="geometry" />
        </mxCell>
        <mxCell id="4N5WWOKBTAKUQs4fO8nh-37" value="&lt;font style=&quot;font-size: 18px;&quot;&gt;Batch Info&lt;/font&gt;" style="text;html=1;strokeColor=none;fillColor=none;align=center;verticalAlign=middle;whiteSpace=wrap;rounded=0;" parent="1" vertex="1">
          <mxGeometry x="870" y="160" width="100" height="30" as="geometry" />
        </mxCell>
        <mxCell id="KUVzWsEhl4BoeXKU-PMS-4" style="edgeStyle=orthogonalEdgeStyle;rounded=0;orthogonalLoop=1;jettySize=auto;html=1;exitX=0;exitY=0.5;exitDx=0;exitDy=0;exitPerimeter=0;entryX=1;entryY=0.5;entryDx=0;entryDy=0;strokeWidth=5;fillColor=#f8cecc;strokeColor=#b85450;" edge="1" parent="1" source="4N5WWOKBTAKUQs4fO8nh-38" target="4N5WWOKBTAKUQs4fO8nh-30">
          <mxGeometry relative="1" as="geometry">
            <Array as="points">
              <mxPoint x="800" y="455" />
              <mxPoint x="800" y="355" />
            </Array>
          </mxGeometry>
        </mxCell>
        <mxCell id="4N5WWOKBTAKUQs4fO8nh-38" value="&lt;font style=&quot;font-size: 18px;&quot;&gt;Verify.sol&lt;/font&gt;" style="shape=note;whiteSpace=wrap;html=1;backgroundOutline=1;darkOpacity=0.05;" parent="1" vertex="1">
          <mxGeometry x="900" y="400" width="90" height="110" as="geometry" />
        </mxCell>
        <mxCell id="4N5WWOKBTAKUQs4fO8nh-39" value="&lt;font style=&quot;font-size: 18px;&quot;&gt;Aggregator&lt;/font&gt;" style="rounded=1;whiteSpace=wrap;html=1;" parent="1" vertex="1">
          <mxGeometry x="1200" y="380" width="120" height="60" as="geometry" />
        </mxCell>
        <mxCell id="4N5WWOKBTAKUQs4fO8nh-47" style="edgeStyle=orthogonalEdgeStyle;rounded=0;orthogonalLoop=1;jettySize=auto;html=1;exitX=0;exitY=0.5;exitDx=0;exitDy=0;entryX=1;entryY=0.5;entryDx=0;entryDy=0;strokeWidth=5;fillColor=#f8cecc;strokeColor=#b85450;" parent="1" source="4N5WWOKBTAKUQs4fO8nh-40" target="4N5WWOKBTAKUQs4fO8nh-36" edge="1">
          <mxGeometry relative="1" as="geometry">
            <Array as="points">
              <mxPoint x="1140" y="250" />
              <mxPoint x="1140" y="320" />
            </Array>
          </mxGeometry>
        </mxCell>
        <mxCell id="4N5WWOKBTAKUQs4fO8nh-40" value="&lt;font style=&quot;font-size: 18px;&quot;&gt;Sequencer&lt;/font&gt;" style="rounded=1;whiteSpace=wrap;html=1;" parent="1" vertex="1">
          <mxGeometry x="1200" y="220" width="120" height="60" as="geometry" />
        </mxCell>
        <mxCell id="4N5WWOKBTAKUQs4fO8nh-42" value="" style="shape=umlActor;verticalLabelPosition=bottom;verticalAlign=top;html=1;outlineConnect=0;" parent="1" vertex="1">
          <mxGeometry x="-110" y="270" width="70" height="100" as="geometry" />
        </mxCell>
        <mxCell id="4N5WWOKBTAKUQs4fO8nh-43" value="Claim" style="rounded=1;whiteSpace=wrap;html=1;fontSize=18;" parent="1" vertex="1">
          <mxGeometry x="-20" y="160" width="120" height="60" as="geometry" />
        </mxCell>
        <mxCell id="4N5WWOKBTAKUQs4fO8nh-46" style="edgeStyle=orthogonalEdgeStyle;rounded=0;orthogonalLoop=1;jettySize=auto;html=1;exitX=0;exitY=0.5;exitDx=0;exitDy=0;endArrow=none;endFill=0;" parent="1" source="4N5WWOKBTAKUQs4fO8nh-44" target="4N5WWOKBTAKUQs4fO8nh-42" edge="1">
          <mxGeometry relative="1" as="geometry" />
        </mxCell>
        <mxCell id="KUVzWsEhl4BoeXKU-PMS-1" style="edgeStyle=orthogonalEdgeStyle;rounded=0;orthogonalLoop=1;jettySize=auto;html=1;exitX=1;exitY=0.5;exitDx=0;exitDy=0;entryX=0.5;entryY=1;entryDx=0;entryDy=0;fillColor=#d5e8d4;strokeColor=#82b366;strokeWidth=5;" edge="1" parent="1" source="4N5WWOKBTAKUQs4fO8nh-44" target="4N5WWOKBTAKUQs4fO8nh-22">
          <mxGeometry relative="1" as="geometry" />
        </mxCell>
        <mxCell id="4N5WWOKBTAKUQs4fO8nh-44" value="Bridge" style="rounded=1;whiteSpace=wrap;html=1;fontSize=18;" parent="1" vertex="1">
          <mxGeometry x="-20" y="420" width="120" height="60" as="geometry" />
        </mxCell>
        <mxCell id="4N5WWOKBTAKUQs4fO8nh-45" style="edgeStyle=orthogonalEdgeStyle;rounded=0;orthogonalLoop=1;jettySize=auto;html=1;exitX=0;exitY=0.5;exitDx=0;exitDy=0;entryX=0.5;entryY=0;entryDx=0;entryDy=0;entryPerimeter=0;endArrow=none;endFill=0;" parent="1" source="4N5WWOKBTAKUQs4fO8nh-43" target="4N5WWOKBTAKUQs4fO8nh-42" edge="1">
          <mxGeometry relative="1" as="geometry" />
        </mxCell>
        <mxCell id="4N5WWOKBTAKUQs4fO8nh-48" style="edgeStyle=orthogonalEdgeStyle;rounded=0;orthogonalLoop=1;jettySize=auto;html=1;exitX=0;exitY=0.5;exitDx=0;exitDy=0;entryX=0;entryY=0;entryDx=90;entryDy=70;entryPerimeter=0;strokeWidth=5;fillColor=#f8cecc;strokeColor=#b85450;" parent="1" source="4N5WWOKBTAKUQs4fO8nh-39" target="4N5WWOKBTAKUQs4fO8nh-38" edge="1">
          <mxGeometry relative="1" as="geometry">
            <Array as="points">
              <mxPoint x="1130" y="410" />
              <mxPoint x="1130" y="470" />
            </Array>
          </mxGeometry>
        </mxCell>
        <mxCell id="4N5WWOKBTAKUQs4fO8nh-49" value="Sequence Batch" style="text;html=1;strokeColor=none;fillColor=none;align=center;verticalAlign=middle;whiteSpace=wrap;rounded=0;fontSize=18;" parent="1" vertex="1">
          <mxGeometry x="1050" y="280" width="60" height="30" as="geometry" />
        </mxCell>
        <mxCell id="4N5WWOKBTAKUQs4fO8nh-50" value="Verify Batch" style="text;html=1;strokeColor=none;fillColor=none;align=center;verticalAlign=middle;whiteSpace=wrap;rounded=0;fontSize=18;" parent="1" vertex="1">
          <mxGeometry x="1040" y="433" width="60" height="30" as="geometry" />
        </mxCell>
      </root>
    </mxGraphModel>
  </diagram>
</mxfile>
